<svg width="24" height="25" viewBox="0 0 24 25" fill="none" xmlns="http://www.w3.org/2000/svg">
<rect y="0.370361" width="24" height="24" rx="5" fill="#42B8C3"/>
<circle cx="17" cy="16.3704" r="2.5" stroke="#222222" stroke-width="2"/>
<path d="M19 18.3704L21 20.3704" stroke="#222222" stroke-width="2" stroke-linecap="round"/>
<path fill-rule="evenodd" clip-rule="evenodd" d="M2 10.5704C2 8.05013 2 6.79001 2.49047 5.8274C2.9219 4.98067 3.61031 4.29226 4.45704 3.86083C5.41965 3.37036 6.67976 3.37036 9.2 3.37036H14.8C17.3202 3.37036 18.5804 3.37036 19.543 3.86083C20.3897 4.29226 21.0781 4.98067 21.5095 5.8274C22 6.79001 22 8.05013 22 10.5704V14.0759C21.1304 12.184 19.2186 10.8704 17 10.8704C13.9624 10.8704 11.5 13.3328 11.5 16.3704C11.5 18.589 12.8136 20.5008 14.7055 21.3704H5.2C4.0799 21.3704 3.51984 21.3704 3.09202 21.1524C2.71569 20.9606 2.40973 20.6547 2.21799 20.2783C2 19.8505 2 19.2905 2 18.1704V10.5704ZM6 10.3704C6 9.81808 6.44772 9.37036 7 9.37036H13C13.5523 9.37036 14 9.81808 14 10.3704C14 10.9226 13.5523 11.3704 13 11.3704H7C6.44772 11.3704 6 10.9226 6 10.3704ZM6 14.3704C6 13.8181 6.44772 13.3704 7 13.3704H10C10.5523 13.3704 11 13.8181 11 14.3704C11 14.9226 10.5523 15.3704 10 15.3704H7C6.44772 15.3704 6 14.9226 6 14.3704Z" fill="#222222"/>
</svg>
