<svg width="365" height="25" viewBox="0 0 365 25" fill="none" xmlns="http://www.w3.org/2000/svg">
<rect y="0.370361" width="24" height="24" rx="5" fill="#42B8C3"/>
<circle cx="17" cy="16.3704" r="2.5" stroke="#222222" stroke-width="2"/>
<path d="M19 18.3704L21 20.3704" stroke="#222222" stroke-width="2" stroke-linecap="round"/>
<path fill-rule="evenodd" clip-rule="evenodd" d="M2 10.5704C2 8.05013 2 6.79001 2.49047 5.8274C2.9219 4.98067 3.61031 4.29226 4.45704 3.86083C5.41965 3.37036 6.67976 3.37036 9.2 3.37036H14.8C17.3202 3.37036 18.5804 3.37036 19.543 3.86083C20.3897 4.29226 21.0781 4.98067 21.5095 5.8274C22 6.79001 22 8.05013 22 10.5704V14.0759C21.1304 12.184 19.2186 10.8704 17 10.8704C13.9624 10.8704 11.5 13.3328 11.5 16.3704C11.5 18.589 12.8136 20.5008 14.7055 21.3704H5.2C4.0799 21.3704 3.51984 21.3704 3.09202 21.1524C2.71569 20.9606 2.40973 20.6547 2.21799 20.2783C2 19.8505 2 19.2905 2 18.1704V10.5704ZM6 10.3704C6 9.81808 6.44772 9.37036 7 9.37036H13C13.5523 9.37036 14 9.81808 14 10.3704C14 10.9226 13.5523 11.3704 13 11.3704H7C6.44772 11.3704 6 10.9226 6 10.3704ZM6 14.3704C6 13.8181 6.44772 13.3704 7 13.3704H10C10.5523 13.3704 11 13.8181 11 14.3704C11 14.9226 10.5523 15.3704 10 15.3704H7C6.44772 15.3704 6 14.9226 6 14.3704Z" fill="#222222"/>
<path d="M55.136 17.8704V6.67036H62.256V8.04636H56.832V11.5344H61.776V12.8784H56.832V16.4944H62.256V17.8704H55.136ZM67.3806 18.0624C66.378 18.0624 65.5513 17.817 64.9006 17.3264C64.25 16.8357 63.8766 16.185 63.7806 15.3744H65.4926C65.578 15.737 65.7806 16.0517 66.1006 16.3184C66.4206 16.5744 66.842 16.7024 67.3646 16.7024C67.8766 16.7024 68.25 16.5957 68.4846 16.3824C68.7193 16.169 68.8366 15.9237 68.8366 15.6464C68.8366 15.241 68.6713 14.969 68.3406 14.8304C68.0206 14.681 67.5726 14.5477 66.9966 14.4304C66.5486 14.3344 66.1006 14.2064 65.6526 14.0464C65.2153 13.8864 64.8473 13.6624 64.5486 13.3744C64.2606 13.0757 64.1166 12.6757 64.1166 12.1744C64.1166 11.481 64.3833 10.905 64.9166 10.4464C65.45 9.97703 66.1966 9.74236 67.1566 9.74236C68.042 9.74236 68.7566 9.95569 69.3006 10.3824C69.8553 10.809 70.1806 11.4117 70.2766 12.1904H68.6446C68.5913 11.849 68.4313 11.5824 68.1646 11.3904C67.9086 11.1984 67.562 11.1024 67.1246 11.1024C66.698 11.1024 66.3673 11.193 66.1326 11.3744C65.898 11.545 65.7806 11.769 65.7806 12.0464C65.7806 12.3237 65.9406 12.5424 66.2606 12.7024C66.5913 12.8624 67.0233 13.0064 67.5566 13.1344C68.09 13.2517 68.5806 13.3904 69.0286 13.5504C69.4873 13.6997 69.8553 13.9237 70.1326 14.2224C70.41 14.521 70.5486 14.9584 70.5486 15.5344C70.5593 16.2597 70.2766 16.8624 69.7006 17.3424C69.1353 17.8224 68.362 18.0624 67.3806 18.0624ZM75.4313 17.8704C74.6526 17.8704 74.0339 17.6837 73.5753 17.3104C73.1166 16.9264 72.8873 16.249 72.8873 15.2784V11.3584H71.5273V9.93436H72.8873L73.0953 7.91836H74.5833V9.93436H76.8233V11.3584H74.5833V15.2784C74.5833 15.7157 74.6739 16.0197 74.8553 16.1904C75.0473 16.3504 75.3726 16.4304 75.8313 16.4304H76.7433V17.8704H75.4313ZM81.26 18.0624C80.588 18.0624 80.0333 17.9504 79.596 17.7264C79.1587 17.5024 78.8333 17.209 78.62 16.8464C78.4067 16.473 78.3 16.0677 78.3 15.6304C78.3 14.8624 78.5987 14.2544 79.196 13.8064C79.7933 13.3584 80.6467 13.1344 81.756 13.1344H83.836V12.9904C83.836 12.3717 83.6653 11.9077 83.324 11.5984C82.9933 11.289 82.5613 11.1344 82.028 11.1344C81.5587 11.1344 81.148 11.2517 80.796 11.4864C80.4547 11.7104 80.2467 12.0464 80.172 12.4944H78.476C78.5293 11.9184 78.7213 11.4277 79.052 11.0224C79.3933 10.6064 79.82 10.2917 80.332 10.0784C80.8547 9.85436 81.4253 9.74236 82.044 9.74236C83.1533 9.74236 84.012 10.0357 84.62 10.6224C85.228 11.1984 85.532 11.9877 85.532 12.9904V17.8704H84.06L83.916 16.5104C83.692 16.9477 83.3667 17.3157 82.94 17.6144C82.5133 17.913 81.9533 18.0624 81.26 18.0624ZM81.596 16.6864C82.0547 16.6864 82.4387 16.5797 82.748 16.3664C83.068 16.1424 83.3133 15.849 83.484 15.4864C83.6653 15.1237 83.7773 14.7237 83.82 14.2864H81.932C81.26 14.2864 80.78 14.4037 80.492 14.6384C80.2147 14.873 80.076 15.1664 80.076 15.5184C80.076 15.881 80.2093 16.169 80.476 16.3824C80.7533 16.585 81.1267 16.6864 81.596 16.6864ZM91.1255 18.0624C90.3575 18.0624 89.6802 17.881 89.0935 17.5184C88.5068 17.1557 88.0482 16.6597 87.7175 16.0304C87.3868 15.401 87.2215 14.6864 87.2215 13.8864C87.2215 13.0864 87.3868 12.377 87.7175 11.7584C88.0482 11.129 88.5068 10.6384 89.0935 10.2864C89.6908 9.92369 90.3735 9.74236 91.1415 9.74236C91.7708 9.74236 92.3202 9.86503 92.7895 10.1104C93.2695 10.3557 93.6428 10.7024 93.9095 11.1504V6.35036H95.6055V17.8704H94.0855L93.9095 16.6384C93.6535 17.0117 93.3015 17.3424 92.8535 17.6304C92.4055 17.9184 91.8295 18.0624 91.1255 18.0624ZM91.4295 16.5904C92.1548 16.5904 92.7468 16.3397 93.2055 15.8384C93.6748 15.337 93.9095 14.6917 93.9095 13.9024C93.9095 13.1024 93.6748 12.457 93.2055 11.9664C92.7468 11.465 92.1548 11.2144 91.4295 11.2144C90.7042 11.2144 90.1068 11.465 89.6375 11.9664C89.1682 12.457 88.9335 13.1024 88.9335 13.9024C88.9335 14.425 89.0402 14.889 89.2535 15.2944C89.4668 15.6997 89.7602 16.0197 90.1335 16.2544C90.5175 16.4784 90.9495 16.5904 91.4295 16.5904ZM101.456 18.0624C100.699 18.0624 100.016 17.8917 99.4079 17.5504C98.8105 17.1984 98.3359 16.713 97.9839 16.0944C97.6319 15.465 97.4559 14.7344 97.4559 13.9024C97.4559 13.0704 97.6319 12.345 97.9839 11.7264C98.3465 11.097 98.8319 10.6117 99.4399 10.2704C100.048 9.91836 100.725 9.74236 101.472 9.74236C102.229 9.74236 102.907 9.91836 103.504 10.2704C104.112 10.6117 104.592 11.097 104.944 11.7264C105.307 12.345 105.488 13.0704 105.488 13.9024C105.488 14.7344 105.307 15.465 104.944 16.0944C104.592 16.713 104.112 17.1984 103.504 17.5504C102.896 17.8917 102.213 18.0624 101.456 18.0624ZM101.456 16.6064C101.861 16.6064 102.235 16.505 102.576 16.3024C102.928 16.0997 103.211 15.801 103.424 15.4064C103.637 15.001 103.744 14.4997 103.744 13.9024C103.744 13.305 103.637 12.809 103.424 12.4144C103.221 12.009 102.944 11.705 102.592 11.5024C102.251 11.2997 101.877 11.1984 101.472 11.1984C101.067 11.1984 100.688 11.2997 100.336 11.5024C99.9945 11.705 99.7172 12.009 99.5039 12.4144C99.2905 12.809 99.1839 13.305 99.1839 13.9024C99.1839 14.4997 99.2905 15.001 99.5039 15.4064C99.7172 15.801 99.9945 16.0997 100.336 16.3024C100.677 16.505 101.051 16.6064 101.456 16.6064Z" fill="#C0BBE0"/>
<path d="M271.136 17.8704V6.67036H275.056C275.931 6.67036 276.656 6.81969 277.232 7.11836C277.808 7.40636 278.235 7.80636 278.512 8.31836C278.8 8.81969 278.944 9.39036 278.944 10.0304C278.944 10.6384 278.805 11.1984 278.528 11.7104C278.261 12.2117 277.84 12.6117 277.264 12.9104C276.688 13.209 275.952 13.3584 275.056 13.3584H272.832V17.8704H271.136ZM272.832 11.9664H274.976C275.776 11.9664 276.347 11.7957 276.688 11.4544C277.04 11.1024 277.216 10.6277 277.216 10.0304C277.216 9.41169 277.04 8.93169 276.688 8.59036C276.347 8.23836 275.776 8.06236 274.976 8.06236H272.832V11.9664ZM284.151 18.0624C283.372 18.0624 282.679 17.8917 282.071 17.5504C281.474 17.1984 281.004 16.713 280.663 16.0944C280.322 15.4757 280.151 14.7557 280.151 13.9344C280.151 13.1024 280.316 12.3717 280.647 11.7424C280.988 11.113 281.458 10.6224 282.055 10.2704C282.663 9.91836 283.367 9.74236 284.167 9.74236C284.946 9.74236 285.623 9.91836 286.199 10.2704C286.775 10.6117 287.223 11.0704 287.543 11.6464C287.863 12.2224 288.023 12.857 288.023 13.5504C288.023 13.657 288.018 13.7744 288.007 13.9024C288.007 14.0197 288.002 14.153 287.991 14.3024H281.815C281.868 15.0704 282.119 15.657 282.567 16.0624C283.026 16.457 283.554 16.6544 284.151 16.6544C284.631 16.6544 285.031 16.5477 285.351 16.3344C285.682 16.1104 285.927 15.8117 286.087 15.4384H287.783C287.57 16.185 287.143 16.809 286.503 17.3104C285.874 17.8117 285.09 18.0624 284.151 18.0624ZM284.151 11.1344C283.586 11.1344 283.084 11.305 282.647 11.6464C282.21 11.977 281.943 12.4784 281.847 13.1504H286.327C286.295 12.5317 286.076 12.041 285.671 11.6784C285.266 11.3157 284.759 11.1344 284.151 11.1344ZM290.103 17.8704V9.93436H291.607L291.735 11.3264C291.98 10.8357 292.337 10.4517 292.807 10.1744C293.287 9.88636 293.836 9.74236 294.455 9.74236C295.415 9.74236 296.167 10.041 296.711 10.6384C297.265 11.2357 297.543 12.1264 297.543 13.3104V17.8704H295.863V13.4864C295.863 11.9504 295.233 11.1824 293.975 11.1824C293.345 11.1824 292.823 11.4064 292.407 11.8544C292.001 12.3024 291.799 12.9424 291.799 13.7744V17.8704H290.103ZM303.476 18.0624C302.708 18.0624 302.031 17.881 301.444 17.5184C300.857 17.1557 300.399 16.6597 300.068 16.0304C299.737 15.401 299.572 14.6864 299.572 13.8864C299.572 13.0864 299.737 12.377 300.068 11.7584C300.399 11.129 300.857 10.6384 301.444 10.2864C302.041 9.92369 302.724 9.74236 303.492 9.74236C304.121 9.74236 304.671 9.86503 305.14 10.1104C305.62 10.3557 305.993 10.7024 306.26 11.1504V6.35036H307.956V17.8704H306.436L306.26 16.6384C306.004 17.0117 305.652 17.3424 305.204 17.6304C304.756 17.9184 304.18 18.0624 303.476 18.0624ZM303.78 16.5904C304.505 16.5904 305.097 16.3397 305.556 15.8384C306.025 15.337 306.26 14.6917 306.26 13.9024C306.26 13.1024 306.025 12.457 305.556 11.9664C305.097 11.465 304.505 11.2144 303.78 11.2144C303.055 11.2144 302.457 11.465 301.988 11.9664C301.519 12.457 301.284 13.1024 301.284 13.9024C301.284 14.425 301.391 14.889 301.604 15.2944C301.817 15.6997 302.111 16.0197 302.484 16.2544C302.868 16.4784 303.3 16.5904 303.78 16.5904ZM311.374 8.43036C311.054 8.43036 310.788 8.33436 310.574 8.14236C310.372 7.93969 310.27 7.68903 310.27 7.39036C310.27 7.09169 310.372 6.84636 310.574 6.65436C310.788 6.45169 311.054 6.35036 311.374 6.35036C311.694 6.35036 311.956 6.45169 312.158 6.65436C312.372 6.84636 312.478 7.09169 312.478 7.39036C312.478 7.68903 312.372 7.93969 312.158 8.14236C311.956 8.33436 311.694 8.43036 311.374 8.43036ZM310.526 17.8704V9.93436H312.222V17.8704H310.526ZM318.493 18.0624C317.715 18.0624 317.021 17.8917 316.413 17.5504C315.816 17.1984 315.347 16.713 315.005 16.0944C314.664 15.4757 314.493 14.7557 314.493 13.9344C314.493 13.1024 314.659 12.3717 314.989 11.7424C315.331 11.113 315.8 10.6224 316.397 10.2704C317.005 9.91836 317.709 9.74236 318.509 9.74236C319.288 9.74236 319.965 9.91836 320.541 10.2704C321.117 10.6117 321.565 11.0704 321.885 11.6464C322.205 12.2224 322.365 12.857 322.365 13.5504C322.365 13.657 322.36 13.7744 322.349 13.9024C322.349 14.0197 322.344 14.153 322.333 14.3024H316.157C316.211 15.0704 316.461 15.657 316.909 16.0624C317.368 16.457 317.896 16.6544 318.493 16.6544C318.973 16.6544 319.373 16.5477 319.693 16.3344C320.024 16.1104 320.269 15.8117 320.429 15.4384H322.125C321.912 16.185 321.485 16.809 320.845 17.3104C320.216 17.8117 319.432 18.0624 318.493 18.0624ZM318.493 11.1344C317.928 11.1344 317.427 11.305 316.989 11.6464C316.552 11.977 316.285 12.4784 316.189 13.1504H320.669C320.637 12.5317 320.419 12.041 320.013 11.6784C319.608 11.3157 319.101 11.1344 318.493 11.1344ZM324.445 17.8704V9.93436H325.949L326.077 11.3264C326.322 10.8357 326.68 10.4517 327.149 10.1744C327.629 9.88636 328.178 9.74236 328.797 9.74236C329.757 9.74236 330.509 10.041 331.053 10.6384C331.608 11.2357 331.885 12.1264 331.885 13.3104V17.8704H330.205V13.4864C330.205 11.9504 329.576 11.1824 328.317 11.1824C327.688 11.1824 327.165 11.4064 326.749 11.8544C326.344 12.3024 326.141 12.9424 326.141 13.7744V17.8704H324.445ZM337.531 17.8704C336.752 17.8704 336.133 17.6837 335.675 17.3104C335.216 16.9264 334.987 16.249 334.987 15.2784V11.3584H333.627V9.93436H334.987L335.195 7.91836H336.683V9.93436H338.923V11.3584H336.683V15.2784C336.683 15.7157 336.773 16.0197 336.955 16.1904C337.147 16.3504 337.472 16.4304 337.931 16.4304H338.843V17.8704H337.531ZM344.5 18.0624C343.722 18.0624 343.028 17.8917 342.42 17.5504C341.823 17.1984 341.354 16.713 341.012 16.0944C340.671 15.4757 340.5 14.7557 340.5 13.9344C340.5 13.1024 340.666 12.3717 340.996 11.7424C341.338 11.113 341.807 10.6224 342.404 10.2704C343.012 9.91836 343.716 9.74236 344.516 9.74236C345.295 9.74236 345.972 9.91836 346.548 10.2704C347.124 10.6117 347.572 11.0704 347.892 11.6464C348.212 12.2224 348.372 12.857 348.372 13.5504C348.372 13.657 348.367 13.7744 348.356 13.9024C348.356 14.0197 348.351 14.153 348.34 14.3024H342.164C342.218 15.0704 342.468 15.657 342.916 16.0624C343.375 16.457 343.903 16.6544 344.5 16.6544C344.98 16.6544 345.38 16.5477 345.7 16.3344C346.031 16.1104 346.276 15.8117 346.436 15.4384H348.132C347.919 16.185 347.492 16.809 346.852 17.3104C346.223 17.8117 345.439 18.0624 344.5 18.0624ZM344.5 11.1344C343.935 11.1344 343.434 11.305 342.996 11.6464C342.559 11.977 342.292 12.4784 342.196 13.1504H346.676C346.644 12.5317 346.426 12.041 346.02 11.6784C345.615 11.3157 345.108 11.1344 344.5 11.1344Z" fill="#352E5B" fill-opacity="0.8"/>
</svg>
