<svg width="48" height="49" viewBox="0 0 48 49" fill="none" xmlns="http://www.w3.org/2000/svg">
<path opacity="0.98" fill-rule="evenodd" clip-rule="evenodd" d="M10.5097 7.07813C15.7253 6.2956 20.1375 7.72353 23.7456 11.362C28.5266 6.92251 33.9644 6.00454 40.0597 8.60808C45.066 12.7561 46.2972 17.8557 43.7535 23.9076C38.8506 31.0255 32.8994 37.1453 25.9003 42.2669C24.6691 42.6751 23.4378 42.6751 22.2066 42.2669C15.1355 37.0731 9.08195 30.8511 4.04564 23.6016C1.4804 16.0791 3.63508 10.5713 10.5097 7.07813Z" fill="#42B8C3"/>
<path fill-rule="evenodd" clip-rule="evenodd" d="M30.5984 16.6603C30.5984 16.6603 31.1371 17.2009 31.5 17.7454C32.25 18.8704 33.75 21.1204 33.75 21.1204C33.75 21.1204 38.625 21.1204 41.6797 20.9441C41.6797 21.7599 41.625 21.8046 41.625 22.6204C38.625 22.4741 36 22.6204 33 22.6204C32.6485 21.8829 32.0238 20.7256 31.5547 20.0353C31.6112 20.1054 31.4725 19.7912 31.2141 20.6381C30.4892 23.0142 29.715 25.3743 28.7516 27.6759C27.9309 26.4519 27.1253 25.3842 26.3047 24.1603C25.095 27.3156 24.2581 30.4237 23.8266 33.7957C23.1032 33.9297 22.4876 33.7259 21.9797 33.1837C21.055 29.1043 19.4266 25.2237 17.9266 21.5518C17.1766 23.6573 16.7406 25.2844 16.125 27.1204C13.838 27.0732 11.2913 27.0639 9 27.0639C9 26.2482 9.05157 26.0438 9.05157 25.228C11.25 25.2996 12.9186 25.2525 15 25.228C15.4297 23.4103 16.6156 21.1594 17.25 18.1204C17.625 18.4954 17.9983 18.6175 18.375 19.2454C20.625 22.9954 22.9031 29.5118 22.9031 29.5118C22.9031 29.5118 24.8047 23.7853 25.125 21.1746C26.2891 21.9103 28.4438 24.616 28.4438 24.616L30.5984 16.6603Z" fill="#E4F8F3"/>
</svg>
