<svg width="24" height="25" viewBox="0 0 24 25" fill="none" xmlns="http://www.w3.org/2000/svg">
<rect y="0.370361" width="24" height="24" rx="5" fill="#42B8C3"/>
<path fill-rule="evenodd" clip-rule="evenodd" d="M5.58579 4.95615C5 5.54193 5 6.48474 5 8.37036V17.3704C5 19.256 5 20.1988 5.58579 20.7846C6.17157 21.3704 7.11438 21.3704 9 21.3704H15C16.8856 21.3704 17.8284 21.3704 18.4142 20.7846C19 20.1988 19 19.256 19 17.3704V8.37036C19 6.48474 19 5.54193 18.4142 4.95615C17.8284 4.37036 16.8856 4.37036 15 4.37036H9C7.11438 4.37036 6.17157 4.37036 5.58579 4.95615ZM9 8.37036C8.44772 8.37036 8 8.81808 8 9.37036C8 9.92265 8.44772 10.3704 9 10.3704H15C15.5523 10.3704 16 9.92265 16 9.37036C16 8.81808 15.5523 8.37036 15 8.37036H9ZM9 12.3704C8.44772 12.3704 8 12.8181 8 13.3704C8 13.9226 8.44772 14.3704 9 14.3704H15C15.5523 14.3704 16 13.9226 16 13.3704C16 12.8181 15.5523 12.3704 15 12.3704H9ZM9 16.3704C8.44772 16.3704 8 16.8181 8 17.3704C8 17.9226 8.44772 18.3704 9 18.3704H13C13.5523 18.3704 14 17.9226 14 17.3704C14 16.8181 13.5523 16.3704 13 16.3704H9Z" fill="#222222"/>
</svg>
