<svg width="334" height="64" viewBox="0 0 334 64" fill="none" xmlns="http://www.w3.org/2000/svg">
<g clip-path="url(#clip0_53_1118)">
<path opacity="0.98" fill-rule="evenodd" clip-rule="evenodd" d="M14.0129 8.27703C20.967 7.23365 26.85 9.13755 31.6609 13.9888C38.0354 8.06953 45.2859 6.84557 53.4129 10.317C60.088 15.8476 61.7296 22.6471 58.3379 30.7163C51.8008 40.2068 43.8658 48.3666 34.5338 55.1954C32.8921 55.7397 31.2504 55.7397 29.6088 55.1954C20.1807 48.2703 12.1093 39.9743 5.39419 30.3083C1.97386 20.2783 4.84678 12.9346 14.0129 8.27703Z" fill="#42B8C3"/>
<path fill-rule="evenodd" clip-rule="evenodd" d="M40.7979 21.0532C40.7979 21.0532 41.5161 21.7741 42 22.5C43 24 45 27 45 27C45 27 51.5 27 55.5729 26.765C55.5729 27.8527 55.5 27.9123 55.5 29C51.5 28.805 48 29 44 29C43.5313 28.0168 42.6984 26.4736 42.0729 25.5532C42.1482 25.6467 41.9633 25.2278 41.6188 26.357C40.6522 29.5252 39.62 32.6719 38.3354 35.7407C37.2413 34.1088 36.1671 32.6852 35.0729 31.0532C33.46 35.2604 32.3442 39.4044 31.7688 43.9004C30.8043 44.0791 29.9834 43.8074 29.3063 43.0845C28.0734 37.6452 25.9021 32.4711 23.9021 27.5752C22.9021 30.3825 22.3208 32.5521 21.5 35C18.4506 34.9372 15.0551 34.9248 12 34.9248C12 33.8371 12.0688 33.5645 12.0688 32.4768C15 32.5723 17.2248 32.5095 20 32.4768C20.5729 30.0532 22.1542 27.0521 23 23C23.5 23.5 23.9977 23.6628 24.5 24.5C27.5 29.5 30.5375 38.1886 30.5375 38.1886C30.5375 38.1886 33.0729 30.5532 33.5 27.0723C35.0521 28.0532 37.925 31.6609 37.925 31.6609L40.7979 21.0532Z" fill="#E4F8F3"/>
<path d="M91.216 20.6H97.552V43H91.216V20.6ZM82.576 43H76.24V20.6H82.576V43ZM91.664 34.264H82.128V29.016H91.664V34.264ZM110.921 43.288C108.873 43.288 107.081 42.904 105.545 42.136C104.031 41.3467 102.847 40.28 101.993 38.936C101.161 37.5707 100.745 36.024 100.745 34.296C100.745 32.568 101.151 31.032 101.961 29.688C102.793 28.3227 103.935 27.2667 105.385 26.52C106.836 25.752 108.468 25.368 110.281 25.368C111.988 25.368 113.545 25.72 114.953 26.424C116.361 27.1067 117.481 28.12 118.313 29.464C119.145 30.808 119.561 32.44 119.561 34.36C119.561 34.5733 119.551 34.8187 119.529 35.096C119.508 35.3733 119.487 35.6293 119.465 35.864H105.737V32.664H116.233L113.929 33.56C113.951 32.7707 113.801 32.088 113.481 31.512C113.183 30.936 112.756 30.488 112.201 30.168C111.668 29.848 111.039 29.688 110.313 29.688C109.588 29.688 108.948 29.848 108.393 30.168C107.86 30.488 107.444 30.9467 107.145 31.544C106.847 32.12 106.697 32.8027 106.697 33.592V34.52C106.697 35.3733 106.868 36.1093 107.209 36.728C107.572 37.3467 108.084 37.8267 108.745 38.168C109.407 38.488 110.196 38.648 111.113 38.648C111.967 38.648 112.692 38.5307 113.289 38.296C113.908 38.04 114.516 37.656 115.113 37.144L118.313 40.472C117.481 41.3893 116.457 42.0933 115.241 42.584C114.025 43.0533 112.585 43.288 110.921 43.288ZM132.588 43V39.768L132.172 38.968V33.016C132.172 32.056 131.873 31.32 131.276 30.808C130.7 30.2747 129.772 30.008 128.492 30.008C127.66 30.008 126.817 30.1467 125.964 30.424C125.11 30.68 124.385 31.0427 123.788 31.512L121.74 27.384C122.721 26.744 123.894 26.2533 125.26 25.912C126.646 25.5493 128.022 25.368 129.388 25.368C132.204 25.368 134.38 26.0187 135.916 27.32C137.473 28.6 138.252 30.616 138.252 33.368V43H132.588ZM127.468 43.288C126.081 43.288 124.908 43.0533 123.948 42.584C122.988 42.1147 122.252 41.4747 121.74 40.664C121.249 39.8533 121.004 38.9467 121.004 37.944C121.004 36.8773 121.27 35.96 121.804 35.192C122.358 34.4027 123.201 33.8053 124.332 33.4C125.462 32.9733 126.924 32.76 128.716 32.76H132.812V35.928H129.548C128.566 35.928 127.873 36.088 127.468 36.408C127.084 36.728 126.892 37.1547 126.892 37.688C126.892 38.2213 127.094 38.648 127.5 38.968C127.905 39.288 128.46 39.448 129.164 39.448C129.825 39.448 130.422 39.288 130.956 38.968C131.51 38.6267 131.916 38.1147 132.172 37.432L133.004 39.672C132.684 40.8667 132.054 41.7733 131.116 42.392C130.198 42.9893 128.982 43.288 127.468 43.288ZM142.19 43V19.256H148.27V43H142.19ZM161.815 43.288C159.596 43.288 157.868 42.744 156.631 41.656C155.393 40.5467 154.775 38.8827 154.775 36.664V21.784H160.855V36.6C160.855 37.2187 161.025 37.7093 161.367 38.072C161.708 38.4133 162.145 38.584 162.679 38.584C163.404 38.584 164.023 38.4027 164.535 38.04L166.039 42.296C165.527 42.6373 164.897 42.8827 164.151 43.032C163.404 43.2027 162.625 43.288 161.815 43.288ZM152.247 30.84V26.296H164.823V30.84H152.247ZM179.779 25.368C181.123 25.368 182.339 25.6453 183.427 26.2C184.515 26.7333 185.369 27.5653 185.987 28.696C186.627 29.8267 186.947 31.288 186.947 33.08V43H180.867V34.072C180.867 32.8347 180.611 31.9387 180.099 31.384C179.609 30.808 178.915 30.52 178.019 30.52C177.379 30.52 176.793 30.6693 176.259 30.968C175.726 31.2453 175.31 31.6827 175.011 32.28C174.713 32.8773 174.563 33.656 174.563 34.616V43H168.483V19.256H174.563V30.584L173.155 29.144C173.817 27.8853 174.723 26.9467 175.875 26.328C177.027 25.688 178.329 25.368 179.779 25.368ZM191.152 43V20.6H202.608C205.552 20.6 207.75 21.144 209.2 22.232C210.651 23.2987 211.376 24.7067 211.376 26.456C211.376 27.608 211.067 28.6213 210.448 29.496C209.851 30.3493 208.998 31.032 207.889 31.544C206.801 32.0347 205.499 32.28 203.984 32.28L204.624 30.744C206.203 30.744 207.579 30.9893 208.752 31.48C209.926 31.9493 210.832 32.6427 211.472 33.56C212.134 34.456 212.465 35.5547 212.465 36.856C212.465 38.7973 211.675 40.312 210.097 41.4C208.539 42.4667 206.256 43 203.248 43H191.152ZM197.424 38.424H202.736C203.824 38.424 204.646 38.2427 205.2 37.88C205.776 37.496 206.064 36.92 206.064 36.152C206.064 35.384 205.776 34.8187 205.2 34.456C204.646 34.072 203.824 33.88 202.736 33.88H196.976V29.496H201.776C202.843 29.496 203.643 29.3147 204.176 28.952C204.71 28.5893 204.976 28.0453 204.976 27.32C204.976 26.5947 204.71 26.0613 204.176 25.72C203.643 25.3573 202.843 25.176 201.776 25.176H197.424V38.424ZM224.262 43.288C222.364 43.288 220.678 42.904 219.206 42.136C217.734 41.368 216.572 40.312 215.718 38.968C214.886 37.6027 214.47 36.0453 214.47 34.296C214.47 32.5467 214.886 31 215.718 29.656C216.572 28.312 217.734 27.2667 219.206 26.52C220.678 25.752 222.364 25.368 224.262 25.368C226.161 25.368 227.846 25.752 229.318 26.52C230.812 27.2667 231.974 28.312 232.806 29.656C233.638 31 234.054 32.5467 234.054 34.296C234.054 36.0453 233.638 37.6027 232.806 38.968C231.974 40.312 230.812 41.368 229.318 42.136C227.846 42.904 226.161 43.288 224.262 43.288ZM224.262 38.456C224.966 38.456 225.585 38.296 226.118 37.976C226.673 37.656 227.11 37.1867 227.43 36.568C227.75 35.928 227.91 35.1707 227.91 34.296C227.91 33.4213 227.75 32.6853 227.43 32.088C227.11 31.4693 226.673 31 226.118 30.68C225.585 30.36 224.966 30.2 224.262 30.2C223.58 30.2 222.961 30.36 222.406 30.68C221.873 31 221.436 31.4693 221.094 32.088C220.774 32.6853 220.614 33.4213 220.614 34.296C220.614 35.1707 220.774 35.928 221.094 36.568C221.436 37.1867 221.873 37.656 222.406 37.976C222.961 38.296 223.58 38.456 224.262 38.456ZM245.675 43.288C243.776 43.288 242.091 42.904 240.619 42.136C239.147 41.368 237.984 40.312 237.131 38.968C236.299 37.6027 235.883 36.0453 235.883 34.296C235.883 32.5467 236.299 31 237.131 29.656C237.984 28.312 239.147 27.2667 240.619 26.52C242.091 25.752 243.776 25.368 245.675 25.368C247.573 25.368 249.259 25.752 250.731 26.52C252.224 27.2667 253.387 28.312 254.219 29.656C255.051 31 255.467 32.5467 255.467 34.296C255.467 36.0453 255.051 37.6027 254.219 38.968C253.387 40.312 252.224 41.368 250.731 42.136C249.259 42.904 247.573 43.288 245.675 43.288ZM245.675 38.456C246.379 38.456 246.997 38.296 247.531 37.976C248.085 37.656 248.523 37.1867 248.843 36.568C249.163 35.928 249.323 35.1707 249.323 34.296C249.323 33.4213 249.163 32.6853 248.843 32.088C248.523 31.4693 248.085 31 247.531 30.68C246.997 30.36 246.379 30.2 245.675 30.2C244.992 30.2 244.373 30.36 243.819 30.68C243.285 31 242.848 31.4693 242.507 32.088C242.187 32.6853 242.027 33.4213 242.027 34.296C242.027 35.1707 242.187 35.928 242.507 36.568C242.848 37.1867 243.285 37.656 243.819 37.976C244.373 38.296 244.992 38.456 245.675 38.456ZM263.439 39.8L263.599 32.536L270.671 25.656H277.871L270.031 33.752L266.927 36.248L263.439 39.8ZM258.383 43V19.256H264.463V43H258.383ZM271.119 43L265.807 36.344L269.583 31.672L278.479 43H271.119ZM280.421 43V25.656H286.501V43H280.421ZM283.461 23.736C282.351 23.736 281.455 23.4267 280.773 22.808C280.09 22.1893 279.749 21.4213 279.749 20.504C279.749 19.5867 280.09 18.8187 280.773 18.2C281.455 17.5813 282.351 17.272 283.461 17.272C284.57 17.272 285.466 17.5707 286.149 18.168C286.831 18.744 287.173 19.4907 287.173 20.408C287.173 21.368 286.831 22.168 286.149 22.808C285.487 23.4267 284.591 23.736 283.461 23.736ZM301.848 25.368C303.192 25.368 304.408 25.6453 305.496 26.2C306.584 26.7333 307.437 27.5653 308.056 28.696C308.696 29.8267 309.016 31.288 309.016 33.08V43H302.936V34.072C302.936 32.8347 302.68 31.9387 302.168 31.384C301.677 30.808 300.984 30.52 300.088 30.52C299.448 30.52 298.861 30.6693 298.328 30.968C297.795 31.2453 297.379 31.6827 297.08 32.28C296.781 32.8773 296.632 33.656 296.632 34.616V43H290.552V25.656H296.344V30.584L295.224 29.144C295.885 27.8853 296.792 26.9467 297.944 26.328C299.096 25.688 300.397 25.368 301.848 25.368ZM321.632 49.496C319.968 49.496 318.379 49.304 316.864 48.92C315.371 48.536 314.091 47.9707 313.024 47.224L315.232 42.968C315.957 43.544 316.853 43.992 317.92 44.312C319.008 44.6533 320.064 44.824 321.088 44.824C322.731 44.824 323.915 44.4613 324.64 43.736C325.365 43.032 325.728 41.9973 325.728 40.632V38.584L326.048 33.72L326.016 28.824V25.656H331.808V39.832C331.808 43.1173 330.923 45.5493 329.152 47.128C327.381 48.7067 324.875 49.496 321.632 49.496ZM320.576 42.104C319.04 42.104 317.621 41.7627 316.32 41.08C315.04 40.376 314.005 39.4053 313.216 38.168C312.448 36.9093 312.064 35.4267 312.064 33.72C312.064 32.0133 312.448 30.5413 313.216 29.304C314.005 28.0453 315.04 27.0747 316.32 26.392C317.621 25.7093 319.04 25.368 320.576 25.368C322.048 25.368 323.307 25.6667 324.352 26.264C325.397 26.84 326.187 27.7467 326.72 28.984C327.275 30.2213 327.552 31.8 327.552 33.72C327.552 35.64 327.275 37.2187 326.72 38.456C326.187 39.6933 325.397 40.6107 324.352 41.208C323.307 41.8053 322.048 42.104 320.576 42.104ZM322.016 37.272C322.741 37.272 323.381 37.1227 323.936 36.824C324.512 36.5253 324.96 36.1093 325.28 35.576C325.621 35.0427 325.792 34.424 325.792 33.72C325.792 33.016 325.621 32.3973 325.28 31.864C324.96 31.3307 324.512 30.9253 323.936 30.648C323.381 30.3493 322.741 30.2 322.016 30.2C321.291 30.2 320.64 30.3493 320.064 30.648C319.488 30.9253 319.029 31.3307 318.688 31.864C318.368 32.3973 318.208 33.016 318.208 33.72C318.208 34.424 318.368 35.0427 318.688 35.576C319.029 36.1093 319.488 36.5253 320.064 36.824C320.64 37.1227 321.291 37.272 322.016 37.272Z" fill="black"/>
</g>
<defs>
<clipPath id="clip0_53_1118">
<rect width="334" height="64" fill="white"/>
</clipPath>
</defs>
</svg>
