          <svg width="302" height="64" viewBox="0 0 302 64" fill="none" xmlns="http://www.w3.org/2000/svg"><g clip-path="url(#clip0_47_323)"><path opacity="0.98" fill-rule="evenodd" clip-rule="evenodd" d="M14.0129 8.27703C20.967 7.23365 26.85 9.13755 31.6609 13.9888C38.0355 8.06953 45.2859 6.84557 53.4129 10.317C60.088 15.8476 61.7296 22.6471 58.3379 30.7163C51.8008 40.2068 43.8658 48.3666 34.5338 55.1954C32.8921 55.7397 31.2504 55.7397 29.6088 55.1954C20.1807 48.2703 12.1093 39.9743 5.39419 30.3083C1.97386 20.2783 4.84678 12.9346 14.0129 8.27703Z" fill="#42B8C3"/><path fill-rule="evenodd" clip-rule="evenodd" d="M40.7979 21.0532C40.7979 21.0532 41.5161 21.7741 42 22.5C43 24 45 27 45 27C45 27 51.5 27 55.5729 26.765C55.5729 27.8527 55.5 27.9123 55.5 29C51.5 28.805 48 29 44 29C43.5313 28.0168 42.6984 26.4736 42.0729 25.5532C42.1482 25.6467 41.9633 25.2278 41.6188 26.357C40.6522 29.5252 39.62 32.6719 38.3354 35.7407C37.2413 34.1088 36.1671 32.6852 35.0729 31.0532C33.46 35.2604 32.3442 39.4044 31.7688 43.9004C30.8043 44.0791 29.9834 43.8074 29.3063 43.0845C28.0734 37.6452 25.9021 32.4711 23.9021 27.5752C22.9021 30.3825 22.3208 32.5521 21.5 35C18.4506 34.9372 15.0551 34.9248 12 34.9248C12 33.8371 12.0688 33.5645 12.0688 32.4768C15 32.5723 17.2248 32.5095 20 32.4768C20.5729 30.0532 22.1542 27.0521 23 23C23.5 23.5 23.9977 23.6628 24.5 24.5C27.5 29.5 30.5375 38.1886 30.5375 38.1886C30.5375 38.1886 33.0729 30.5532 33.5 27.0723C35.0521 28.0532 37.925 31.6609 37.925 31.6609L40.7979 21.0532Z" fill="#E4F8F3"/><path d="M89.064 22.4H94.608V42H89.064V22.4ZM81.504 42H75.96V22.4H81.504V42ZM89.456 34.356H81.112V29.764H89.456V34.356ZM106.319 42.252C104.527 42.252 102.959 41.916 101.615 41.244C100.289 40.5533 99.2533 39.62 98.5066 38.444C97.7786 37.2493 97.4146 35.896 97.4146 34.384C97.4146 32.872 97.7693 31.528 98.4786 30.352C99.2066 29.1573 100.205 28.2333 101.475 27.58C102.744 26.908 104.172 26.572 105.759 26.572C107.252 26.572 108.615 26.88 109.847 27.496C111.079 28.0933 112.059 28.98 112.787 30.156C113.515 31.332 113.879 32.76 113.879 34.44C113.879 34.6267 113.869 34.8413 113.851 35.084C113.832 35.3267 113.813 35.5507 113.795 35.756H101.783V32.956H110.967L108.951 33.74C108.969 33.0493 108.839 32.452 108.559 31.948C108.297 31.444 107.924 31.052 107.439 30.772C106.972 30.492 106.421 30.352 105.787 30.352C105.152 30.352 104.592 30.492 104.107 30.772C103.64 31.052 103.276 31.4533 103.015 31.976C102.753 32.48 102.623 33.0773 102.623 33.768V34.58C102.623 35.3267 102.772 35.9707 103.071 36.512C103.388 37.0533 103.836 37.4733 104.415 37.772C104.993 38.052 105.684 38.192 106.487 38.192C107.233 38.192 107.868 38.0893 108.391 37.884C108.932 37.66 109.464 37.324 109.987 36.876L112.787 39.788C112.059 40.5907 111.163 41.2067 110.099 41.636C109.035 42.0467 107.775 42.252 106.319 42.252ZM125.289 42V39.172L124.925 38.472V33.264C124.925 32.424 124.664 31.78 124.141 31.332C123.637 30.8653 122.825 30.632 121.705 30.632C120.977 30.632 120.24 30.7533 119.493 30.996C118.747 31.22 118.112 31.5373 117.589 31.948L115.797 28.336C116.656 27.776 117.683 27.3467 118.877 27.048C120.091 26.7307 121.295 26.572 122.489 26.572C124.953 26.572 126.857 27.1413 128.201 28.28C129.564 29.4 130.245 31.164 130.245 33.572V42H125.289ZM120.809 42.252C119.596 42.252 118.569 42.0467 117.729 41.636C116.889 41.2253 116.245 40.6653 115.797 39.956C115.368 39.2467 115.153 38.4533 115.153 37.576C115.153 36.6427 115.387 35.84 115.853 35.168C116.339 34.4773 117.076 33.9547 118.065 33.6C119.055 33.2267 120.333 33.04 121.901 33.04H125.485V35.812H122.629C121.771 35.812 121.164 35.952 120.809 36.232C120.473 36.512 120.305 36.8853 120.305 37.352C120.305 37.8187 120.483 38.192 120.837 38.472C121.192 38.752 121.677 38.892 122.293 38.892C122.872 38.892 123.395 38.752 123.861 38.472C124.347 38.1733 124.701 37.7253 124.925 37.128L125.653 39.088C125.373 40.1333 124.823 40.9267 124.001 41.468C123.199 41.9907 122.135 42.252 120.809 42.252ZM133.703 42V21.224H139.023V42H133.703ZM150.888 42.252C148.947 42.252 147.435 41.776 146.352 40.824C145.269 39.8533 144.728 38.3973 144.728 36.456V23.436H150.048V36.4C150.048 36.9413 150.197 37.3707 150.496 37.688C150.795 37.9867 151.177 38.136 151.644 38.136C152.279 38.136 152.82 37.9773 153.268 37.66L154.584 41.384C154.136 41.6827 153.585 41.8973 152.932 42.028C152.279 42.1773 151.597 42.252 150.888 42.252ZM142.516 31.36V27.384H153.52V31.36H142.516ZM166.619 26.572C167.795 26.572 168.859 26.8147 169.811 27.3C170.763 27.7667 171.51 28.4947 172.051 29.484C172.611 30.4733 172.891 31.752 172.891 33.32V42H167.571V34.188C167.571 33.1053 167.347 32.3213 166.899 31.836C166.47 31.332 165.863 31.08 165.079 31.08C164.519 31.08 164.006 31.2107 163.539 31.472C163.073 31.7147 162.709 32.0973 162.447 32.62C162.186 33.1427 162.055 33.824 162.055 34.664V42H156.735V21.224H162.055V31.136L160.823 29.876C161.402 28.7747 162.195 27.9533 163.203 27.412C164.211 26.852 165.35 26.572 166.619 26.572ZM176.583 42V22.4H186.607C189.183 22.4 191.106 22.876 192.375 23.828C193.645 24.7613 194.279 25.9933 194.279 27.524C194.279 28.532 194.009 29.4187 193.467 30.184C192.945 30.9307 192.198 31.528 191.227 31.976C190.275 32.4053 189.137 32.62 187.811 32.62L188.371 31.276C189.753 31.276 190.957 31.4907 191.983 31.92C193.01 32.3307 193.803 32.9373 194.363 33.74C194.942 34.524 195.231 35.4853 195.231 36.624C195.231 38.3227 194.541 39.648 193.159 40.6C191.797 41.5333 189.799 42 187.167 42H176.583ZM182.071 37.996H186.719C187.671 37.996 188.39 37.8373 188.875 37.52C189.379 37.184 189.631 36.68 189.631 36.008C189.631 35.336 189.379 34.8413 188.875 34.524C188.39 34.188 187.671 34.02 186.719 34.02H181.679V30.184H185.879C186.813 30.184 187.513 30.0253 187.979 29.708C188.446 29.3907 188.679 28.9147 188.679 28.28C188.679 27.6453 188.446 27.1787 187.979 26.88C187.513 26.5627 186.813 26.404 185.879 26.404H182.071V37.996ZM205.567 42.252C203.906 42.252 202.431 41.916 201.143 41.244C199.855 40.572 198.838 39.648 198.091 38.472C197.363 37.2773 196.999 35.9147 196.999 34.384C196.999 32.8533 197.363 31.5 198.091 30.324C198.838 29.148 199.855 28.2333 201.143 27.58C202.431 26.908 203.906 26.572 205.567 26.572C207.228 26.572 208.703 26.908 209.991 27.58C211.298 28.2333 212.315 29.148 213.043 30.324C213.771 31.5 214.135 32.8533 214.135 34.384C214.135 35.9147 213.771 37.2773 213.043 38.472C212.315 39.648 211.298 40.572 209.991 41.244C208.703 41.916 207.228 42.252 205.567 42.252ZM205.567 38.024C206.183 38.024 206.724 37.884 207.191 37.604C207.676 37.324 208.059 36.9133 208.339 36.372C208.619 35.812 208.759 35.1493 208.759 34.384C208.759 33.6187 208.619 32.9747 208.339 32.452C208.059 31.9107 207.676 31.5 207.191 31.22C206.724 30.94 206.183 30.8 205.567 30.8C204.97 30.8 204.428 30.94 203.943 31.22C203.476 31.5 203.094 31.9107 202.795 32.452C202.515 32.9747 202.375 33.6187 202.375 34.384C202.375 35.1493 202.515 35.812 202.795 36.372C203.094 36.9133 203.476 37.324 203.943 37.604C204.428 37.884 204.97 38.024 205.567 38.024ZM224.315 42.252C222.654 42.252 221.179 41.916 219.891 41.244C218.603 40.572 217.586 39.648 216.839 38.472C216.111 37.2773 215.747 35.9147 215.747 34.384C215.747 32.8533 216.111 31.5 216.839 30.324C217.586 29.148 218.603 28.2333 219.891 27.58C221.179 26.908 222.654 26.572 224.315 26.572C225.977 26.572 227.451 26.908 228.739 27.58C230.046 28.2333 231.063 29.148 231.791 30.324C232.519 31.5 232.883 32.8533 232.883 34.384C232.883 35.9147 232.519 37.2773 231.791 38.472C231.063 39.648 230.046 40.572 228.739 41.244C227.451 41.916 225.977 42.252 224.315 42.252ZM224.315 38.024C224.931 38.024 225.473 37.884 225.939 37.604C226.425 37.324 226.807 36.9133 227.087 36.372C227.367 35.812 227.507 35.1493 227.507 34.384C227.507 33.6187 227.367 32.9747 227.087 32.452C226.807 31.9107 226.425 31.5 225.939 31.22C225.473 30.94 224.931 30.8 224.315 30.8C223.718 30.8 223.177 30.94 222.691 31.22C222.225 31.5 221.842 31.9107 221.543 32.452C221.263 32.9747 221.123 33.6187 221.123 34.384C221.123 35.1493 221.263 35.812 221.543 36.372C221.842 36.9133 222.225 37.324 222.691 37.604C223.177 37.884 223.718 38.024 224.315 38.024ZM239.872 39.2L240.012 32.844L246.2 26.824H252.5L245.64 33.908L242.924 36.092L239.872 39.2ZM235.448 42V21.224H240.768V42H235.448ZM246.592 42L241.944 36.176L245.248 32.088L253.032 42H246.592ZM254.743 42V26.824H260.063V42H254.743ZM257.403 25.144C256.432 25.144 255.648 24.8733 255.051 24.332C254.454 23.7907 254.155 23.1187 254.155 22.316C254.155 21.5133 254.454 20.8413 255.051 20.3C255.648 19.7587 256.432 19.488 257.403 19.488C258.374 19.488 259.158 19.7493 259.755 20.272C260.352 20.776 260.651 21.4293 260.651 22.232C260.651 23.072 260.352 23.772 259.755 24.332C259.176 24.8733 258.392 25.144 257.403 25.144ZM273.505 26.572C274.681 26.572 275.745 26.8147 276.697 27.3C277.649 27.7667 278.395 28.4947 278.937 29.484C279.497 30.4733 279.777 31.752 279.777 33.32V42H274.457V34.188C274.457 33.1053 274.233 32.3213 273.785 31.836C273.355 31.332 272.749 31.08 271.965 31.08C271.405 31.08 270.891 31.2107 270.425 31.472C269.958 31.7147 269.594 32.0973 269.333 32.62C269.071 33.1427 268.941 33.824 268.941 34.664V42H263.621V26.824H268.689V31.136L267.709 29.876C268.287 28.7747 269.081 27.9533 270.089 27.412C271.097 26.852 272.235 26.572 273.505 26.572ZM290.828 47.684C289.372 47.684 287.981 47.516 286.656 47.18C285.349 46.844 284.229 46.3493 283.296 45.696L285.228 41.972C285.863 42.476 286.647 42.868 287.58 43.148C288.532 43.4467 289.456 43.596 290.352 43.596C291.789 43.596 292.825 43.2787 293.46 42.644C294.095 42.028 294.412 41.1227 294.412 39.928V38.136L294.692 33.88L294.664 29.596V26.824H299.732V39.228C299.732 42.1027 298.957 44.2307 297.408 45.612C295.859 46.9933 293.665 47.684 290.828 47.684ZM289.904 41.216C288.56 41.216 287.319 40.9173 286.18 40.32C285.06 39.704 284.155 38.8547 283.464 37.772C282.792 36.6707 282.456 35.3733 282.456 33.88C282.456 32.3867 282.792 31.0987 283.464 30.016C284.155 28.9147 285.06 28.0653 286.18 27.468C287.319 26.8707 288.56 26.572 289.904 26.572C291.192 26.572 292.293 26.8333 293.208 27.356C294.123 27.86 294.813 28.6533 295.28 29.736C295.765 30.8187 296.008 32.2 296.008 33.88C296.008 35.56 295.765 36.9413 295.28 38.024C294.813 39.1067 294.123 39.9093 293.208 40.432C292.293 40.9547 291.192 41.216 289.904 41.216ZM291.164 36.988C291.799 36.988 292.359 36.8573 292.844 36.596C293.348 36.3347 293.74 35.9707 294.02 35.504C294.319 35.0373 294.468 34.496 294.468 33.88C294.468 33.264 294.319 32.7227 294.02 32.256C293.74 31.7893 293.348 31.4347 292.844 31.192C292.359 30.9307 291.799 30.8 291.164 30.8C290.529 30.8 289.96 30.9307 289.456 31.192C288.952 31.4347 288.551 31.7893 288.252 32.256C287.972 32.7227 287.832 33.264 287.832 33.88C287.832 34.496 287.972 35.0373 288.252 35.504C288.551 35.9707 288.952 36.3347 289.456 36.596C289.96 36.8573 290.529 36.988 291.164 36.988Z" fill="white"/></g><defs><clipPath id="clip0_47_323"><rect width="302" height="64" fill="white"/></clipPath></defs></svg>
